<?xml version="1.0" encoding="utf-8"?>
<!-- Generator: Adobe Illustrator 16.0.3, SVG Export Plug-In . SVG Version: 6.00 Build 0)  -->
<!DOCTYPE svg PUBLIC "-//W3C//DTD SVG 1.1//EN" "http://www.w3.org/Graphics/SVG/1.1/DTD/svg11.dtd">
<svg version="1.1" id="Layer_1" xmlns="http://www.w3.org/2000/svg" xmlns:xlink="http://www.w3.org/1999/xlink" x="0px" y="0px"
	 width="266px" height="405px" viewBox="0 0 266 405" enable-background="new 0 0 266 405" xml:space="preserve">
<g>
	<g>
		<g>
			<path fill="#DFE4A4" d="M245.034,208.903L131.205,9.375L19.33,212.115l0.018,0.006C9.9,230.152,4.602,250.7,4.755,272.481
				c0.504,70.856,58.354,127.896,129.215,127.4c70.864-0.507,127.905-58.356,127.406-129.226
				C261.212,248.221,255.287,227.177,245.034,208.903z"/>
		</g>
		<g>
			<path fill="#FFFFFF" d="M134.003,404.435C60.743,404.939,0.718,345.771,0.199,272.509c-0.144-20.157,4.345-40.216,13.018-58.313
				l-0.17-0.089l2.298-4.203L131.142,0.062l117.856,206.574c10.929,19.487,16.772,41.61,16.932,63.998
				C266.452,343.892,207.271,403.91,134.003,404.435z M23.722,213.594l-0.34,0.65c-9.343,17.833-14.214,37.964-14.068,58.201
				C9.799,340.688,65.708,395.8,133.938,395.317c68.24-0.485,123.363-56.383,122.878-124.622
				c-0.146-20.854-5.59-41.454-15.755-59.564L131.272,18.688L23.722,213.594z"/>
		</g>
	</g>
	<polygon fill="#FFFFFF" stroke="#FFFFFF" stroke-miterlimit="10" points="16.442,215.24 248.893,213.596 257.776,238.606 
		260.19,286.139 6.161,287.939 5.889,249.032 	"/>
	<g>
		<path fill-rule="evenodd" clip-rule="evenodd" fill="#B6BA8D" d="M83.829,193.719c8.002-5.145,16.808-8.628,26.147-10.896
			c18.763-4.561,37.121-4.401,54.567,5.311c-2.913-3.341-6.596-5.55-10.656-7.122c-15.444-5.982-31.417-6.152-47.504-3.773
			c-8.26,1.228-15.926,4.31-23.462,7.727C82.01,188.141,82.192,191.469,83.829,193.719z"/>
		<path fill-rule="evenodd" clip-rule="evenodd" fill="#B6BA8D" d="M123.639,157.474c-8.226,10.083-16.902,18.361-30.538,19.257
			c-0.022-2.777,1.259-4.75,2.909-6.423c3.983-4.056,8.941-6.594,14.222-8.472C114.436,160.318,118.742,159.048,123.639,157.474z"/>
		<path fill-rule="evenodd" clip-rule="evenodd" fill="#B6BA8D" d="M116.165,171.823c9.18-9.4,19.349-12.44,29.871-8.888
			C142.536,170.162,123.528,175.905,116.165,171.823z"/>
		<path fill-rule="evenodd" clip-rule="evenodd" fill="#B6BA8D" d="M138.474,195.166c-7.562-0.995-14.942-1.214-21.3-5.274
			c-1.645-1.064-2.8-2.906-4.325-4.542C120.936,181.964,132.337,185.309,138.474,195.166z"/>
		<path fill-rule="evenodd" clip-rule="evenodd" fill="#B6BA8D" d="M164.673,172.173c-8.483,3.948-16.889,4.419-25.574,1.634
			C146.639,168.496,157.008,167.6,164.673,172.173z"/>
		<path fill-rule="evenodd" clip-rule="evenodd" fill="#B6BA8D" d="M134.064,182.939c8.658,1.962,14.819,6.505,18.175,14.632
			C145.514,196.595,136.512,189.441,134.064,182.939z"/>
		<path fill-rule="evenodd" clip-rule="evenodd" fill="#B6BA8D" d="M178.084,181.478c-6.219,3.46-15.833,2.005-21.394-2.465
			C162.317,176.947,174.735,177.287,178.084,181.478z"/>
		<path fill-rule="evenodd" clip-rule="evenodd" fill="#B6BA8D" d="M149.633,184.966c7.147,2.763,11.393,7.457,13.644,14.857
			C157.421,195.767,152.16,192.015,149.633,184.966z"/>
		<path fill-rule="evenodd" clip-rule="evenodd" fill="#B6BA8D" d="M182.602,191.25c-6.179,0.789-11.547-0.752-16.049-5.186
			C170.534,184.052,179.01,186.819,182.602,191.25z"/>
		<path fill-rule="evenodd" clip-rule="evenodd" fill="#B6BA8D" d="M171.861,204.349c-3.716-2.822-6.297-6.21-6.087-11.753
			C169.018,196.311,171.272,199.89,171.861,204.349z"/>
	</g>
	<path opacity="0.1" fill="#565656" d="M51.719,362.103c21.903,19.296,50.709,30.948,82.2,30.718
		c31.504-0.22,60.139-12.272,81.772-31.885L51.719,362.103z"/>
	<g>
		<path fill="#565656" d="M19.702,226.11l11.726-0.044c6.763-0.045,10.171,3.62,10.226,11.012l0.056,7.932
			c0.017,3.463-1.354,5.92-4.124,7.365c2.79,1.427,4.2,3.864,4.229,7.327l0.053,7.961c0.056,7.367-3.301,11.08-10.066,11.131
			c-0.11,0.01-0.269,0.008-0.484,0.025l-11.247,0.075L19.702,226.11z M27.37,233.568l0.104,15.116l2.398-0.018
			c1.049-0.006,1.779-0.08,2.175-0.229c1.372-0.57,2.057-1.686,2.045-3.379l-0.056-7.926c-0.015-2.406-1.134-3.603-3.342-3.588
			L27.37,233.568z M27.53,256.222l0.104,15.122l3.33-0.027c2.208-0.016,3.305-1.222,3.287-3.599l-0.053-7.961
			c-0.013-1.688-0.71-2.807-2.095-3.321c-0.398-0.171-1.123-0.242-2.182-0.228L27.53,256.222z"/>
		<path fill="#565656" d="M47.893,225.915l7.611-0.053l0.374,52.784l-7.611,0.056L47.893,225.915z"/>
		<path fill="#565656" d="M84.27,268.195c0.056,7.386-3.569,11.117-10.868,11.184c-7.281,0.054-10.952-3.621-11.001-11.028
			l-0.228-32.286c-0.054-7.39,3.564-11.105,10.843-11.164c7.298-0.042,10.978,3.62,11.024,11.011L84.27,268.195z M76.431,235.965
			c-0.021-2.371-1.125-3.554-3.336-3.552h-0.054c-2.188,0.01-3.275,1.216-3.257,3.599l0.228,32.289
			c0.016,2.383,1.13,3.571,3.337,3.552c2.223-0.021,3.326-1.22,3.308-3.603L76.431,235.965z"/>
		<path fill="#BFCD9B" d="M90.821,224.774l11.252-0.043c6.35-0.05,9.559,3.443,9.611,10.484l0.058,8.598
			c0.028,3.917-2.033,6.576-6.182,8.008c4.17,1.575,6.27,4.218,6.296,7.916l0.061,8.623c0.048,7.018-3.107,10.548-9.463,10.595
			c-0.15-0.002-0.348,0.014-0.581,0.027l-10.672,0.083L90.821,224.774z M96.189,229.954l0.142,19.296l4.051-0.021
			c1.322-0.012,2.281-0.121,2.884-0.338c2.112-0.878,3.159-2.553,3.14-5.036l-0.059-8.6c-0.028-3.574-1.721-5.356-5.08-5.334
			L96.189,229.954z M96.363,254.513l0.136,19.298l5.081-0.039c3.356-0.029,5.027-1.82,5-5.378l-0.061-8.627
			c-0.017-2.488-1.073-4.133-3.184-4.928c-0.604-0.254-1.581-0.365-2.913-0.361L96.363,254.513z"/>
		<path fill="#BFCD9B" d="M118.313,224.59l18.482-0.134l0.035,5.215l-13.146,0.093l0.136,19.296l11.311-0.082l0.033,5.248
			l-11.305,0.085l0.136,19.302l13.147-0.092l0.035,5.213l-18.48,0.128L118.313,224.59z"/>
		<path fill="#BFCD9B" d="M163.054,259.92l2.608,18.621l-5.397,0.025l-1.693-12.105l-10.981,0.068l-1.546,12.145l-5.366,0.034
			l2.323-18.555l5.395-35.783l8.806-0.067L163.054,259.92z M157.839,261.213l-5.044-33.601l-4.574,33.667L157.839,261.213z"/>
		<path fill="#BFCD9B" d="M180.473,251.015l12.414,27.33l-5.651,0.035l-11.465-25.158l0.179,25.242l-5.333,0.035l-0.387-54.276
			l5.335-0.042l0.185,25.702l11.096-25.786l5.659-0.029L180.473,251.015z"/>
		<path fill="#BFCD9B" d="M197.459,224.028l18.483-0.136l0.031,5.215l-13.135,0.094l0.14,19.303l11.3-0.084l0.042,5.254
			l-11.307,0.078l0.134,19.303l13.146-0.091l0.029,5.208l-18.478,0.139L197.459,224.028z"/>
		<path fill="#BFCD9B" d="M222.064,223.854l10.556-0.054c6.354-0.045,9.559,3.447,9.609,10.501l0.059,8.594
			c0.032,4.353-2.241,7.385-6.813,9.105l9.247,25.975l-5.922,0.04l-7.637-25.25l-3.551,0.488l0.177,24.842l-5.337,0.029
			L222.064,223.854z M227.439,229.026l0.137,19.297l3.352-0.021c1.315-0.006,2.276-0.126,2.883-0.342
			c2.112-0.872,3.157-2.556,3.146-5.03l-0.065-8.596c-0.029-3.581-1.713-5.362-5.081-5.333L227.439,229.026z"/>
	</g>
</g>
</svg>
